/* XPM */
static char *result[] = {
/* columns rows colors chars-per-pixel */
"32 32 24 1 ",
"  c black",
". c #010000",
"X c #200000",
"o c #240000",
"O c #280000",
"+ c #3C0000",
"@ c #400000",
"# c #440000",
"$ c #480000",
"% c #500000",
"& c #7C0000",
"* c #B70000",
"= c #BB0000",
"- c #CB0000",
"; c #CF0000",
": c #D30000",
"> c #D70000",
", c #E70000",
"< c #EB0000",
"1 c #EF0000",
"2 c #F30000",
"3 c #FB0000",
"4 c red",
"5 c None",
/* pixels */
"555555555555        555555555555",
"555555555              555555555",
"5555555 .  O&=>21:*&O  . 5555555",
"555555   %;4444444444;%   555555",
"55555  X-44444444444444-o  55555",
"5555  +,4444444444444444<@  5555",
"555  +24444444444444444443#  555",
"55  X,44444444444444444444<o  55",
"55. -4444444444444444444444- .55",
"5  %444444444444444444444444%  5",
"5  ;444444444444444444444444;  5",
"5 O44444444444444444444444444O 5",
"  &44444444444444444444444444&  ",
"  =44444444444444444444444444*  ",
"  >44444444444444444444444444:  ",
"  2444444444444444444444444441  ",
"  2444444444444444444444444441  ",
"  >44444444444444444444444444:  ",
"  =44444444444444444444444444*  ",
"  &44444444444444444444444444&  ",
"5 O44444444444444444444444444O 5",
"5  ;444444444444444444444444;  5",
"5  %444444444444444444444444%  5",
"55. -4444444444444444444444- .55",
"55  o<444444444444444444441o  55",
"555  @34444444444444444443$  555",
"5555  #<44444444444444441$  5555",
"55555  o-44444444444444-o  55555",
"555555   %;4444444444;%   555555",
"5555555 .  O&=>21:*&O  . 5555555",
"555555555              555555555",
"555555555555        555555555555"
};
